<?xml version="1.0" standalone="no"?>
<!DOCTYPE svg PUBLIC "-//W3C//DTD SVG 20010904//EN"
 "http://www.w3.org/TR/2001/REC-SVG-20010904/DTD/svg10.dtd">
<svg version="1.0" xmlns="http://www.w3.org/2000/svg"
 width="600.000000pt" height="600.000000pt" viewBox="0 0 600.000000 600.000000"
 preserveAspectRatio="xMidYMid meet">
<metadata>
Created by potrace 1.14, written by Peter Selinger 2001-2017
</metadata>
<g transform="translate(0.000000,600.000000) scale(0.100000,-0.100000)"
fill="#000000" stroke="none">
<path d="M3189 5352 c-1 -4 -1 -10 0 -14 0 -5 -4 -8 -10 -8 -6 0 -9 -6 -6 -12
3 -10 -19 -13 -92 -13 -89 -1 -100 -3 -151 -32 -34 -20 -76 -34 -110 -38 -57
-7 -121 -25 -200 -55 -25 -10 -65 -21 -90 -25 -142 -22 -255 -86 -332 -189
-12 -16 -36 -34 -54 -42 -17 -7 -46 -32 -64 -54 -17 -22 -43 -43 -56 -46 -26
-7 -30 -14 -13 -31 8 -8 5 -14 -10 -22 -14 -8 -21 -21 -21 -40 0 -18 -8 -34
-22 -43 -20 -13 -21 -18 -9 -31 11 -14 10 -18 -10 -26 -34 -13 -102 -80 -122
-121 -28 -57 -49 -141 -54 -215 -3 -39 -11 -77 -19 -85 -40 -46 -57 -169 -27
-202 15 -17 15 -19 0 -36 -20 -22 -21 -42 -5 -77 14 -30 38 -33 45 -5 10 40
30 2 30 -59 1 -85 34 -271 55 -306 12 -21 18 -25 18 -12 0 36 17 14 39 -50 29
-84 29 -95 2 -218 -44 -205 -58 -504 -27 -577 9 -21 16 -62 16 -93 0 -68 19
-91 85 -100 51 -8 75 -26 75 -57 0 -44 43 -225 74 -316 19 -54 54 -140 79
-192 24 -52 64 -141 87 -197 24 -56 51 -111 61 -122 11 -11 19 -24 19 -28 0
-5 9 -26 21 -47 28 -52 20 -134 -16 -168 -14 -13 -25 -28 -25 -33 0 -6 -10
-22 -23 -35 -13 -14 -32 -47 -42 -73 -10 -27 -26 -54 -36 -61 -11 -7 -16 -15
-13 -18 3 -4 -2 -20 -10 -37 -9 -16 -16 -39 -16 -50 0 -14 -5 -19 -15 -14 -13
4 -15 -1 -9 -36 5 -34 4 -41 -10 -41 -9 0 -16 -7 -16 -15 0 -8 7 -15 16 -15
12 0 14 -4 6 -12 -5 -7 -9 -46 -8 -85 1 -52 -3 -73 -11 -73 -16 0 -17 -12 -1
-28 8 -8 8 -15 -2 -27 -10 -11 -10 -18 -1 -29 7 -8 10 -29 7 -48 -3 -18 -8
-73 -11 -122 -3 -49 -8 -93 -10 -96 -3 -4 -18 -72 -35 -151 -17 -79 -37 -166
-45 -193 -8 -27 -15 -51 -15 -53 0 -2 337 -3 750 -3 l750 0 4 23 c3 12 10 74
16 137 6 63 15 156 20 205 5 50 21 207 35 350 51 512 60 563 117 685 74 160
137 369 163 544 9 61 25 134 35 161 10 28 33 96 52 152 18 57 36 103 40 103 4
0 24 -11 45 -25 31 -21 47 -25 92 -23 49 3 57 6 71 31 14 26 14 29 -2 41 -10
7 -18 18 -18 24 0 6 -9 14 -20 17 -11 4 -18 10 -15 15 7 12 37 1 53 -18 11
-14 12 -14 12 1 0 10 7 34 17 55 50 113 67 189 84 369 14 160 0 319 -33 366
-23 33 -19 63 16 117 30 47 52 105 61 160 3 25 15 70 25 100 10 31 26 103 34
160 9 58 20 106 26 108 12 4 13 36 1 60 -5 9 -15 44 -22 77 -7 33 -19 66 -27
74 -7 7 -11 20 -8 28 3 8 6 23 6 34 0 14 7 19 28 19 21 0 24 2 12 10 -8 5 -23
7 -32 4 -14 -4 -18 0 -18 17 0 31 -41 89 -63 89 -27 0 -57 19 -57 35 0 20 13
19 43 -5 31 -25 37 -25 37 -2 0 15 7 17 38 14 l37 -3 -30 17 c-16 9 -48 22
-70 29 -32 10 -40 17 -38 34 3 19 -2 21 -32 19 -50 -3 -52 7 -3 27 40 16 57
30 58 48 0 4 -6 7 -14 7 -8 0 -16 5 -18 11 -3 8 -17 9 -51 2 -62 -14 -137 9
-137 41 0 11 7 30 15 40 8 11 15 27 14 35 0 11 -2 12 -6 4 -7 -19 -33 -16 -40
5 -7 17 -55 82 -83 112 -9 8 -24 46 -35 84 -15 53 -25 70 -43 77 -16 6 -22 15
-18 24 3 8 2 15 -3 15 -4 0 -13 10 -20 23 -6 12 -28 33 -47 46 -39 27 -60 59
-47 71 4 4 32 -3 61 -16 36 -17 57 -22 69 -16 26 15 -69 74 -134 83 -40 6 -65
17 -104 48 -27 22 -56 38 -63 35 -7 -3 -20 6 -29 20 -27 40 -154 91 -204 81
-57 -10 -48 -25 15 -25 43 0 63 -5 73 -16 12 -15 10 -16 -27 -10 -22 4 -61 9
-85 11 -92 8 -149 33 -149 66 0 9 -40 19 -41 11z m32 -49 c13 -16 12 -17 -3
-4 -17 13 -22 21 -14 21 2 0 10 -8 17 -17z m-231 -42 c0 -13 -26 -32 -33 -24
-8 7 11 33 24 33 5 0 9 -4 9 -9z m-167 -48 c-7 -2 -19 -2 -25 0 -7 3 -2 5 12
5 14 0 19 -2 13 -5z m1075 -262 c3 -8 -1 -12 -9 -9 -7 2 -15 10 -17 17 -3 8 1
12 9 9 7 -2 15 -10 17 -17z m-1733 -1370 c3 -5 1 -12 -5 -16 -5 -3 -10 1 -10
9 0 18 6 21 15 7z m-10 -41 c3 -5 -1 -23 -10 -39 -18 -36 -20 -78 -3 -83 11
-4 8 -30 -23 -153 -27 -110 -37 -245 -30 -377 1 -13 2 -54 1 -93 0 -65 -1 -68
-14 -45 -8 15 -19 89 -27 181 -13 173 -7 243 36 399 12 47 29 115 36 153 12
64 21 79 34 57z m318 -307 c15 -28 15 -33 3 -33 -8 0 -17 4 -20 9 -3 4 -19 11
-35 14 -50 10 -48 57 4 77 16 6 21 3 25 -14 3 -11 13 -36 23 -53z m879 -28
c-2 -19 1 -42 8 -50 15 -18 10 -18 -24 -5 -14 5 -26 16 -26 24 0 8 -5 16 -11
18 -19 6 13 48 36 48 18 0 20 -5 17 -35z m45 29 c-3 -3 -12 -4 -19 -1 -8 3 -5
6 6 6 11 1 17 -2 13 -5z m190 -76 c-5 -14 -77 -41 -85 -33 -2 2 9 22 24 44 28
39 29 40 48 21 10 -10 16 -25 13 -32z m468 -53 c4 -47 -8 -61 -19 -22 -3 12
-6 40 -6 62 1 33 3 37 11 22 6 -10 12 -38 14 -62z m-1079 -94 c21 -38 21 -38
1 -33 -17 4 -19 2 -13 -14 9 -21 14 -43 15 -61 1 -16 37 -53 51 -53 5 0 9 3 9
8 -9 57 33 56 94 -3 26 -24 47 -51 47 -59 0 -20 -36 -26 -68 -11 -17 9 -54 12
-102 10 -55 -2 -82 1 -103 13 -23 14 -31 14 -48 4 -34 -22 -110 -24 -125 -4
-11 16 -14 15 -38 -7 -19 -18 -29 -22 -37 -14 -9 9 -6 21 11 47 24 39 40 44
65 20 14 -15 18 -14 40 10 24 26 24 28 8 52 -12 19 -13 28 -4 37 6 6 11 21 11
33 0 30 23 37 43 13 31 -36 46 -25 71 53 8 27 47 5 72 -41z m830 -62 c4 -7 -1
-16 -10 -21 -10 -5 -32 -23 -50 -39 -19 -16 -42 -29 -53 -29 -31 0 -33 -9 -12
-45 l20 -33 -26 -27 c-14 -16 -25 -32 -25 -36 0 -5 -6 -9 -12 -9 -7 0 -35 -11
-62 -25 -84 -43 -143 -27 -148 39 -3 30 -40 66 -68 66 -27 0 -13 38 19 54 14
7 57 18 95 25 38 7 79 17 90 24 37 21 170 64 203 65 17 1 35 -3 39 -9z m235
-56 c-8 -15 -9 -12 -6 12 5 40 7 43 12 23 2 -10 0 -25 -6 -35z m-5 -68 c-1
-27 -11 -33 -19 -11 -3 7 0 19 6 25 15 15 15 15 13 -14z m-1843 -27 c-6 -7
-13 -25 -17 -40 -4 -19 -11 -26 -21 -22 -21 8 -19 30 7 64 14 20 25 27 32 20
6 -6 6 -14 -1 -22z m1067 -143 c10 -12 10 -15 -4 -15 -9 0 -16 7 -16 15 0 8 2
15 4 15 2 0 9 -7 16 -15z m-450 -299 c87 -2 100 -8 100 -42 0 -25 0 -25 -89
-22 -82 2 -91 4 -102 25 -11 21 -14 22 -29 8 -24 -22 -40 -18 -40 8 0 33 10
39 50 31 19 -4 69 -8 110 -8z m235 -22 c41 -4 75 -10 75 -14 0 -21 -36 -32
-112 -33 -80 -2 -83 -1 -86 22 -4 25 15 44 35 36 7 -2 46 -7 88 -11z m160 -35
c10 -15 -1 -23 -20 -15 -9 3 -13 10 -10 16 8 13 22 13 30 -1z m-167 -112 c3
-14 -5 -17 -42 -17 -25 0 -46 2 -46 5 0 7 64 34 75 31 6 -2 11 -10 13 -19z"/>
<path d="M2841 2959 c-26 -10 -20 -25 14 -31 14 -2 21 3 23 20 4 24 -1 26 -37
11z"/>
<path d="M3400 2835 c0 -9 5 -15 11 -13 6 2 11 8 11 13 0 5 -5 11 -11 13 -6 2
-11 -4 -11 -13z"/>
<path d="M3260 5350 c20 -13 63 -13 55 0 -3 6 -21 10 -38 10 -24 0 -28 -3 -17
-10z"/>
<path d="M3962 5048 c5 -15 28 -23 28 -10 0 5 -7 13 -16 16 -10 4 -14 1 -12
-6z"/>
<path d="M4245 1203 c-16 -3 -34 -9 -39 -14 -6 -5 -19 -9 -31 -9 -24 0 -75
-22 -75 -32 0 -16 22 -18 49 -3 17 8 55 15 90 15 70 0 88 6 102 31 9 17 6 19
-28 18 -21 -1 -51 -4 -68 -6z"/>
<path d="M3921 797 c-6 -8 -8 -17 -4 -21 8 -7 130 -66 139 -66 3 0 26 -9 51
-21 31 -14 49 -17 56 -10 16 16 -1 41 -40 58 -21 8 -64 28 -97 44 -64 32 -88
36 -105 16z"/>
<path d="M531 114 c0 -11 3 -14 6 -6 3 7 2 16 -1 19 -3 4 -6 -2 -5 -13z"/>
</g>
</svg>
